# File created by Blade
# Date/Time:  Thu Jan 22 16:25:48 2015
# Frame Rate: 120.000 fps
#------------------------------------------------------
:FULLY-SPECIFIED
:DEGREES
958
root 4.343084 37.229122 8.780715 3.216201 8.883851 1.354651
RightUpLeg -2.674138 2.360645 1.013600
RightLeg -5.206059 -0.000000 0.000000
RightFoot -5.751539 -9.409769 21.139886
RightToeBase 14.119378 -0.000000 -0.000000
LeftUpLeg -1.830767 -5.974470 -0.701272
LeftLeg 10.191784 -0.000000 -0.000000
LeftFoot -14.907941 14.060156 -15.300067
LeftToeBase 7.795415 -0.000000 -0.000000
Spine 20.207455 -10.791837 -3.533532
RightShoulder -1.328798 -21.168797 -20.629466
RightArm 25.834209 -9.059947 60.259170
RightForeArm 15.318939 -0.000000 67.140707
RightHand 6.021737 -0.000000 -10.488262
RightHandThumb1 -24.326973 -0.000000 -32.862282
LeftShoulder -27.514213 35.582838 -3.116390
LeftArm 38.135893 4.681210 -68.258446
LeftForeArm 29.934051 -0.000000 62.627383
LeftHand -20.106234 -0.000000 -8.898887
LeftHandThumb1 -26.253704 0.000000 33.147579
Head -13.052878 3.238017 -1.600005
959
root 4.347021 37.233722 8.721423 3.014593 8.147136 1.186752
RightUpLeg -2.938325 2.633604 1.172307
RightLeg -4.644471 -0.000000 0.000000
RightFoot -5.653356 -8.991736 21.155192
RightToeBase 13.966457 -0.000000 -0.000000
LeftUpLeg -1.320871 -4.659207 -0.550437
LeftLeg 9.492159 -0.000000 -0.000000
LeftFoot -14.594587 13.459771 -15.057051
LeftToeBase 7.922200 -0.000000 -0.000000
Spine 20.183407 -10.755061 -4.050109
RightShoulder -1.371038 -21.241374 -20.550825
RightArm 25.685814 -8.652821 60.036798
RightForeArm 15.250464 0.000000 67.574341
RightHand 6.013619 -0.000000 -10.657305
RightHandThumb1 -24.326973 -0.000000 -32.862282
LeftShoulder -27.556871 35.531767 -2.857888
LeftArm 38.163084 4.107710 -68.028855
LeftForeArm 29.825902 -0.000000 62.565884
LeftHand -20.348539 -0.000000 -8.879124
LeftHandThumb1 -26.253704 0.000000 33.147579
Head -13.208534 3.933540 -1.133680
960
root 4.348174 37.242934 8.655823 2.881836 7.446710 1.095907
RightUpLeg -3.281159 2.994689 1.244424
RightLeg -4.046606 -0.000000 0.000000
RightFoot -5.611002 -8.641453 21.165041
RightToeBase 13.808337 -0.000000 -0.000000
LeftUpLeg -0.893401 -3.376269 -0.434344
LeftLeg 8.799278 -0.000000 -0.000000
LeftFoot -14.195067 12.746557 -15.000350
LeftToeBase 8.096976 -0.000000 -0.000000
Spine 20.119234 -10.706246 -4.667767
RightShoulder -1.486183 -21.393554 -20.379792
RightArm 25.656663 -8.280943 59.731259
RightForeArm 15.249380 0.000000 67.853461
RightHand 6.024534 -0.000000 -10.851532
RightHandThumb1 -24.326973 -0.000000 -32.862282
LeftShoulder -27.601592 35.471535 -2.544650
LeftArm 38.201132 3.547934 -67.733347
LeftForeArm 29.797028 -0.000000 62.423806
LeftHand -20.554031 -0.000000 -8.748422
LeftHandThumb1 -26.253704 0.000000 33.147579
Head -13.375015 4.615409 -0.594570
961
root 4.347876 37.256163 8.584136 2.787124 6.756402 1.066273
RightUpLeg -3.685165 3.355353 1.255996
RightLeg -3.397585 -0.000000 0.000000
RightFoot -5.667129 -8.292457 21.360486
RightToeBase 13.630555 -0.000000 -0.000000
LeftUpLeg -0.507077 -2.188708 -0.352203
LeftLeg 8.101499 -0.000000 -0.000000
LeftFoot -13.688337 12.033404 -14.960225
LeftToeBase 8.039473 -0.000000 -0.000000
Spine 20.052526 -10.663046 -5.364365
RightShoulder -1.591458 -21.530790 -20.187360
RightArm 25.604031 -7.920262 59.431382
RightForeArm 15.288373 -0.000000 68.094367
RightHand 5.979158 0.000000 -10.966299
RightHandThumb1 -24.326973 -0.000000 -32.862282
LeftShoulder -27.604099 35.421899 -2.189323
LeftArm 38.170294 2.898769 -67.478341
LeftForeArm 29.862249 0.000000 62.306852
LeftHand -20.673151 -0.000000 -8.900982
LeftHandThumb1 -26.253704 0.000000 33.147579
Head -13.580122 5.149747 -0.061795
962
root 4.347273 37.271024 8.506799 2.712658 6.118727 1.062015
RightUpLeg -4.196116 3.545359 1.251961
RightLeg -2.556012 -0.000000 0.000000
RightFoot -5.910334 -7.782157 21.739052
RightToeBase 13.353738 -0.000000 -0.000000
LeftUpLeg -0.204144 -1.060619 -0.275599
LeftLeg 7.526183 -0.000000 -0.000000
LeftFoot -13.193050 11.215662 -15.063344
LeftToeBase 8.023358 -0.000000 -0.000000
Spine 19.987591 -10.630481 -6.062048
RightShoulder -1.701331 -21.619168 -20.024164
RightArm 25.481833 -7.587574 59.168798
RightForeArm 15.400026 -0.000000 68.277354
RightHand 5.845584 -0.000000 -11.045087
RightHandThumb1 -24.326973 -0.000000 -32.862282
LeftShoulder -27.602821 35.385742 -1.831438
LeftArm 38.188058 2.245534 -67.166102
LeftForeArm 29.753363 -0.000000 62.122426
LeftHand -20.841548 0.000000 -8.543721
LeftHandThumb1 -26.253704 0.000000 33.147579
Head -13.805275 5.701695 0.467156
963
root 4.343655 37.287933 8.423990 2.689108 5.507876 1.088130
RightUpLeg -4.676257 4.047365 1.171662
RightLeg -1.871283 -0.000000 0.000000
RightFoot -6.237397 -7.552764 22.316600
RightToeBase 12.759490 -0.000000 -0.000000
LeftUpLeg 0.131824 -0.349699 -0.246046
LeftLeg 6.783215 -0.000000 -0.000000
LeftFoot -12.658215 10.784708 -15.172525
LeftToeBase 8.008903 -0.000000 -0.000000
Spine 19.874800 -10.578449 -6.788674
RightShoulder -1.879785 -21.686988 -19.805734
RightArm 25.395642 -7.341473 58.805045
RightForeArm 15.609224 0.000000 68.289535
RightHand 5.860117 0.000000 -11.134139
RightHandThumb1 -24.326973 -0.000000 -32.862282
LeftShoulder -27.540893 35.371596 -1.407081
LeftArm 38.175067 1.538900 -66.905540
LeftForeArm 29.783700 0.000000 61.917664
LeftHand -21.065954 -0.000000 -8.326719
LeftHandThumb1 -26.253704 0.000000 33.147579
Head -14.023623 6.139922 1.011885
964
root 4.339984 37.303819 8.338823 2.701841 4.902501 1.111506
RightUpLeg -5.268137 4.392003 1.104768
RightLeg -1.028027 -0.000000 0.000000
RightFoot -6.616094 -7.216939 23.046479
RightToeBase 11.637610 -0.000000 -0.000000
LeftUpLeg 0.374328 0.410001 -0.227955
LeftLeg 6.142010 -0.000000 -0.000000
LeftFoot -12.246982 10.357479 -15.480357
LeftToeBase 8.109817 -0.000000 -0.000000
Spine 19.717474 -10.535876 -7.471543
RightShoulder -1.983087 -21.624879 -19.652165
RightArm 25.113039 -7.117122 58.505218
RightForeArm 15.728768 -0.000000 68.285639
RightHand 5.777565 -0.000000 -11.178800
RightHandThumb1 -24.326973 -0.000000 -32.862282
LeftShoulder -27.521432 35.421046 -1.054494
LeftArm 38.214665 0.799830 -66.578639
LeftForeArm 29.721138 -0.000000 61.667011
LeftHand -21.111048 -0.000000 -8.139245
LeftHandThumb1 -26.253704 0.000000 33.147579
Head -14.221635 6.683478 1.483401
965
root 4.334800 37.316961 8.258034 2.726727 4.359323 1.105529
RightUpLeg -5.920461 4.567636 1.085121
RightLeg -0.035319 -0.000000 0.000000
RightFoot -7.180056 -6.772899 23.775597
RightToeBase 10.146189 -0.000000 -0.000000
LeftUpLeg 0.605268 1.103730 -0.192300
LeftLeg 5.490794 -0.000000 -0.000000
LeftFoot -11.853608 10.017881 -15.697054
LeftToeBase 8.100477 -0.000000 -0.000000
Spine 19.510619 -10.500717 -8.047717
RightShoulder -2.116250 -21.697231 -19.532225
RightArm 24.889747 -6.849361 58.176132
RightForeArm 15.871900 -0.000000 68.234891
RightHand 5.638898 -0.000000 -11.213437
RightHandThumb1 -24.326973 -0.000000 -32.862282
LeftShoulder -27.388334 35.440703 -0.632222
LeftArm 38.174036 0.050570 -66.284547
LeftForeArm 29.678078 -0.000000 61.371492
LeftHand -21.275717 -0.000000 -7.966400
LeftHandThumb1 -26.253704 0.000000 33.147579
Head -14.344300 7.076085 1.825486
966
root 4.333173 37.329753 8.178849 2.741788 3.875767 1.090430
RightUpLeg -6.585128 4.576461 1.089427
RightLeg 1.047670 -0.000000 -0.000000
RightFoot -7.829853 -6.338355 24.347734
RightToeBase 8.369843 -0.000000 -0.000000
LeftUpLeg 0.844362 1.575079 -0.163548
LeftLeg 4.837005 -0.000000 -0.000000
LeftFoot -11.509624 9.832914 -15.971615
LeftToeBase 8.214403 -0.000000 -0.000000
Spine 19.331034 -10.508772 -8.573733
RightShoulder -2.259371 -21.738518 -19.406322
RightArm 24.633486 -6.554618 57.797916
RightForeArm 16.207977 0.000000 68.115777
RightHand 5.560827 -0.000000 -10.688122
RightHandThumb1 -24.326973 -0.000000 -32.862282
LeftShoulder -27.261961 35.466136 -0.235495
LeftArm 38.127479 -0.711176 -66.004295
LeftForeArm 29.481589 -0.000000 61.052180
LeftHand -21.520888 0.000000 -7.775608
LeftHandThumb1 -26.253704 0.000000 33.147579
Head -14.484799 7.387822 2.127636
967
root 4.334123 37.341151 8.101338 2.797066 3.507341 1.020120
RightUpLeg -7.285453 4.336776 1.177091
RightLeg 2.167329 -0.000000 -0.000000
RightFoot -8.542208 -6.011364 25.005763
RightToeBase 6.654171 -0.000000 -0.000000
LeftUpLeg 1.058953 1.811645 -0.080315
LeftLeg 4.134230 -0.000000 -0.000000
LeftFoot -11.211444 9.799955 -16.262819
LeftToeBase 8.164643 -0.000000 -0.000000
Spine 19.099539 -10.625672 -8.929906
RightShoulder -2.438645 -21.831406 -19.285463
RightArm 24.431132 -6.254279 57.278588
RightForeArm 16.341459 -0.000000 67.970553
RightHand 5.257991 -0.000000 -10.546723
RightHandThumb1 -24.326973 -0.000000 -32.862282
LeftShoulder -27.173302 35.450424 0.047936
LeftArm 38.118616 -1.457950 -65.655782
LeftForeArm 29.390683 -0.000000 60.630832
LeftHand -21.598606 -0.000000 -7.580599
LeftHandThumb1 -26.253704 0.000000 33.147579
Head -14.618458 7.676415 2.234599
